{"title":"Ninja Sex Party - Under the Covers [FLAC]","uid":14578985,"size":308359453,"categoryP":"audio","categoryS":"flac","magnet":"?xt=urn:btih:c59152ff4271f94a3505163d668f50a938c78bf5&amp;dn=Ninja+Sex+Party+-+Under+the+Covers+%5BFLAC%5D&amp;tr=udp%3A%2F%2Ftracker.leechers-paradise.org%3A6969&amp;tr=udp%3A%2F%2Fzer0day.ch%3A1337&amp;tr=udp%3A%2F%2Fopen.demonii.com%3A1337&amp;tr=udp%3A%2F%2Ftracker.coppersurfer.tk%3A6969&amp;tr=udp%3A%2F%2Fexodus.desync.com%3A6969","seeders":5,"leechers":0,"uploader":"nam2long","files":13,"time":1462851183,"description":"Just got this today, so I wanted to share. Remember, these guys are independent artists who self-publish, so please support them financially if you like their music!\r\n\r\nAlso note that the log checksum may fail because I removed the full file paths, but the individual CRCs should pass if you expand them to WAV files.\r\n\r\nFiles:\r\n\r\n01 Take On Me.flac\r\n02 Everybody Wants To Rule The World.flac\r\n03 Subdivisions.flac\r\n04 Your Love.flac\r\n05 Misunderstanding.flac\r\n06 Rock With You.flac\r\n07 Madrigal.flac\r\n08 The Burning Down.flac\r\n09 Jump.flac\r\n10 We Close Our Eyes.flac\r\n11 The Last Unicorn.flac\r\n12 Wish You Were Here.flac\r\nNinja Sex Party - Under The Covers.log\r\n\r\nExact Audio Copy V1.1 from 23. June 2015\r\n\r\nEAC extraction logfile from 9. May 2016, 19:46\r\n\r\nNinja Sex Party / Under The Covers\r\n\r\nUsed drive : MATSHITADVD-RAM UJ8E2 S Adapter: 1 ID: 0\r\n\r\nRead mode : Secure\r\nUtilize accurate stream : Yes\r\nDefeat audio cache : No\r\nMake use of C2 pointers : No\r\n\r\nCombined read/write offset correction : 0\r\nOverread into Lead-In and Lead-Out : No\r\nFill up missing offset samples with silence : Yes\r\nDelete leading and trailing silent blocks : No\r\nNull samples used in CRC calculations : Yes\r\nUsed interface : Native Win32 interface for Win NT &amp; 2000\r\nGap handling : Not detected, thus appended to previous track\r\n\r\nUsed output format : User Defined Encoder\r\nSelected bitrate : 768 kBit/s\r\nQuality : High\r\nAdd ID3 tag : No\r\nCommand line compressor : C:Program Files (x86)Exact Audio CopyFLACFLAC.EXE\r\nAdditional command line options : -6 -V -T &quot;ARTIST=%artist%&quot; -T &quot;TITLE=%title%&quot; -T &quot;ALBUM=%albumtitle%&quot; -T &quot;DATE=%year%&quot; -T &quot;TRACKNUMBER=%tracknr%&quot; -T &quot;GENRE=%genre%&quot; -T &quot;COMMENT=%comment%&quot; -T &quot;BAND=%albuminterpret%&quot; -T &quot;ALBUMARTIST=%albuminterpret%&quot; -T &quot;COMPOSER=%composer%&quot; %haslyrics%--tag-from-file=LYRICS=&quot;%lyricsfile%&quot;%haslyrics% -T &quot;DISCNUMBER=%cdnumber%&quot; -T &quot;TOTALDISCS=%totalcds%&quot; -T &quot;TOTALTRACKS=%numtracks%&quot; %hascover%--picture=&quot;%coverfile%&quot;%hascover% %source% -o %dest%\r\n\r\n\r\nTOC of the extracted CD\r\n\r\nTrack | Start | Length | Start sector | End sector \r\n---------------------------------------------------------\r\n1 | 0:00.00 | 3:58.59 | 0 | 17908 \r\n2 | 3:58.59 | 4:13.49 | 17909 | 36932 \r\n3 | 8:12.33 | 5:27.40 | 36933 | 61497 \r\n4 | 13:39.73 | 3:42.25 | 61498 | 78172 \r\n5 | 17:22.23 | 3:33.72 | 78173 | 94219 \r\n6 | 20:56.20 | 3:43.31 | 94220 | 110975 \r\n7 | 24:39.51 | 2:35.28 | 110976 | 122628 \r\n8 | 27:15.04 | 2:23.67 | 122629 | 133420 \r\n9 | 29:38.71 | 3:54.12 | 133421 | 150982 \r\n10 | 33:33.08 | 4:36.74 | 150983 | 171756 \r\n11 | 38:10.07 | 2:48.20 | 171757 | 184376 \r\n12 | 40:58.27 | 4:58.37 | 184377 | 206763 \r\n\r\nNo errors occurred\r\n\r\n---- CUETools DB Plugin V2.1.6\r\n\r\n[CTDB TOCID: Nd.WPjkqNUKpiYocAw.J7r5DuKQ-] found\r\nSubmit result: Nd.WPjkqNUKpiYocAw.J7r5DuKQ- has been confirmed\r\nTrack | CTDB Status\r\n1 | (21/21) Accurately ripped\r\n2 | (21/21) Accurately ripped\r\n3 | (21/21) Accurately ripped\r\n4 | (21/21) Accurately ripped\r\n5 | (21/21) Accurately ripped\r\n6 | (21/21) Accurately ripped\r\n7 | (21/21) Accurately ripped\r\n8 | (21/21) Accurately ripped\r\n9 | (21/21) Accurately ripped\r\n10 | (21/21) Accurately ripped\r\n11 | (21/21) Accurately ripped\r\n12 | (21/21) Accurately ripped","torrent":{"xt":"urn:btih:c59152ff4271f94a3505163d668f50a938c78bf5","amp;dn":"Ninja+Sex+Party+-+Under+the+Covers+%5BFLAC%5D","amp;tr":["udp%3A%2F%2Ftracker.leechers-paradise.org%3A6969","udp%3A%2F%2Fzer0day.ch%3A1337","udp%3A%2F%2Fopen.demonii.com%3A1337","udp%3A%2F%2Ftracker.coppersurfer.tk%3A6969","udp%3A%2F%2Fexodus.desync.com%3A6969"],"infoHash":"c59152ff4271f94a3505163d668f50a938c78bf5","infoHashBuffer":{"type":"Buffer","data":[197,145,82,255,66,113,249,74,53,5,22,61,102,143,80,169,56,199,139,245]},"announce":[],"urlList":[]}}